<mxfile host="65bd71144e">
    <diagram name="Page-1" id="lX3twSQKGP3NPyZ5zAtj">
        <mxGraphModel dx="1109" dy="795" grid="1" gridSize="10" guides="1" tooltips="1" connect="1" arrows="1" fold="1" page="1" pageScale="1" pageWidth="827" pageHeight="1169" math="0" shadow="0">
            <root>
                <mxCell id="0"/>
                <mxCell id="1" parent="0"/>
                <mxCell id="2" style="edgeStyle=none;html=1;" parent="1" source="LCPyGsaO_YFeMnD2ww-F-7" target="LCPyGsaO_YFeMnD2ww-F-2" edge="1">
                    <mxGeometry relative="1" as="geometry">
                        <mxPoint x="560" y="470" as="targetPoint"/>
                    </mxGeometry>
                </mxCell>
                <mxCell id="LCPyGsaO_YFeMnD2ww-F-2" value="&lt;pre class=&quot;p-code-container p-code-container--block p-code-highlight__code-wrapper&quot;&gt;&lt;code&gt;CANCELLED&lt;/code&gt;&lt;/pre&gt;" style="ellipse;whiteSpace=wrap;html=1;strokeWidth=2;fillColor=#2E0000;" parent="1" vertex="1">
                    <mxGeometry x="320" y="430" width="120" height="80" as="geometry"/>
                </mxCell>
                <mxCell id="LCPyGsaO_YFeMnD2ww-F-8" style="rounded=0;orthogonalLoop=1;jettySize=auto;html=1;startArrow=classic;startFill=1;" parent="1" source="LCPyGsaO_YFeMnD2ww-F-5" target="LCPyGsaO_YFeMnD2ww-F-7" edge="1">
                    <mxGeometry relative="1" as="geometry"/>
                </mxCell>
                <mxCell id="4" style="edgeStyle=none;html=1;strokeWidth=1;" parent="1" source="LCPyGsaO_YFeMnD2ww-F-5" target="3" edge="1">
                    <mxGeometry relative="1" as="geometry"/>
                </mxCell>
                <mxCell id="LCPyGsaO_YFeMnD2ww-F-5" value="&lt;pre class=&quot;p-code-container p-code-container--block p-code-highlight__code-wrapper&quot;&gt;&lt;font color=&quot;#d0d0d0&quot;&gt;&lt;span style=&quot;background-color: rgb(60, 60, 60);&quot;&gt;IN_TREATMENT&lt;/span&gt;&lt;/font&gt;&lt;/pre&gt;" style="ellipse;whiteSpace=wrap;html=1;" parent="1" vertex="1">
                    <mxGeometry x="553" y="270" width="120" height="80" as="geometry"/>
                </mxCell>
                <mxCell id="LCPyGsaO_YFeMnD2ww-F-7" value="&lt;pre class=&quot;p-code-container p-code-container--block p-code-highlight__code-wrapper&quot;&gt;&lt;code&gt;PAUSED&lt;/code&gt;&lt;/pre&gt;" style="ellipse;whiteSpace=wrap;html=1;strokeWidth=1;" parent="1" vertex="1">
                    <mxGeometry x="550" y="430" width="120" height="80" as="geometry"/>
                </mxCell>
                <mxCell id="LCPyGsaO_YFeMnD2ww-F-12" style="rounded=0;orthogonalLoop=1;jettySize=auto;html=1;exitX=0;exitY=1;exitDx=0;exitDy=0;" parent="1" source="LCPyGsaO_YFeMnD2ww-F-5" target="LCPyGsaO_YFeMnD2ww-F-2" edge="1">
                    <mxGeometry relative="1" as="geometry"/>
                </mxCell>
                <mxCell id="LCPyGsaO_YFeMnD2ww-F-13" value="" style="endArrow=classic;html=1;rounded=0;entryX=1;entryY=0;entryDx=0;entryDy=0;strokeWidth=2;" parent="1" target="LCPyGsaO_YFeMnD2ww-F-5" edge="1">
                    <mxGeometry width="50" height="50" relative="1" as="geometry">
                        <mxPoint x="679" y="250" as="sourcePoint"/>
                        <mxPoint x="589" y="170" as="targetPoint"/>
                    </mxGeometry>
                </mxCell>
                <mxCell id="3" value="&lt;pre class=&quot;p-code-container p-code-container--block p-code-highlight__code-wrapper&quot;&gt;&lt;code&gt;&lt;span class=&quot;hljs-string&quot;&gt;TERMINATED&lt;/span&gt;&lt;/code&gt;&lt;/pre&gt;" style="ellipse;whiteSpace=wrap;html=1;strokeWidth=2;fillColor=#2E0000;" parent="1" vertex="1">
                    <mxGeometry x="320" y="270" width="120" height="80" as="geometry"/>
                </mxCell>
            </root>
        </mxGraphModel>
    </diagram>
</mxfile>